<?xml version="1.0" standalone="no"?>
<!DOCTYPE svg PUBLIC "-//W3C//DTD SVG 20010904//EN"
 "http://www.w3.org/TR/2001/REC-SVG-20010904/DTD/svg10.dtd">
<svg version="1.0" xmlns="http://www.w3.org/2000/svg"
 width="404.000000pt" height="404.000000pt" viewBox="0 0 404.000000 404.000000"
 preserveAspectRatio="xMidYMid meet">
<metadata>
Created by potrace 1.11, written by Peter Selinger 2001-2013
</metadata>
<g transform="translate(0.000000,404.000000) scale(0.100000,-0.100000)"
fill="#000000" stroke="none">
<path d="M755 3065 c-272 -58 -506 -238 -645 -498 -82 -152 -116 -304 -107
-472 6 -110 10 -137 34 -210 76 -239 273 -419 513 -469 75 -16 228 -18 291 -5
134 28 297 98 370 158 l32 27 -44 34 c-24 19 -53 43 -63 52 -26 24 -30 23
-111 -16 -150 -73 -322 -88 -458 -40 -263 93 -407 369 -347 664 96 474 623
743 986 504 28 -19 54 -34 58 -34 12 0 146 110 146 120 0 16 -125 103 -195
136 -130 60 -313 80 -460 49z"/>
<path d="M3438 3059 c-65 -10 -133 -46 -185 -99 -50 -51 -120 -185 -127 -245
-3 -22 -9 -60 -15 -85 -5 -25 -12 -61 -16 -80 -9 -54 -26 -143 -31 -162 -3 -9
-59 -58 -124 -110 -66 -51 -120 -95 -120 -98 0 -3 45 -4 100 -3 72 1 100 -2
100 -10 0 -7 -12 -73 -26 -147 -14 -74 -27 -146 -30 -160 -2 -14 -11 -59 -19
-100 -8 -41 -17 -88 -20 -105 -9 -46 -41 -215 -70 -365 -14 -74 -28 -146 -30
-160 -3 -14 -7 -36 -10 -50 -2 -14 -7 -38 -11 -55 -3 -16 -8 -38 -10 -47 -5
-16 4 -18 100 -18 114 0 108 -3 120 65 3 17 16 89 30 160 14 72 28 144 30 160
3 17 8 41 11 55 13 66 125 655 141 746 l6 30 119 1 c65 1 121 -2 123 -5 2 -4
-5 -50 -15 -102 -10 -52 -21 -111 -25 -130 -3 -19 -9 -51 -14 -70 -5 -19 -12
-55 -15 -80 -4 -25 -10 -62 -15 -84 -10 -45 -6 -140 8 -176 13 -35 69 -88 112
-107 39 -17 227 -27 263 -14 18 7 24 23 38 99 l16 92 -26 -7 c-44 -11 -126 -6
-158 11 -49 25 -56 61 -33 166 12 53 60 310 67 360 3 19 10 38 15 41 6 4 76 6
155 5 86 0 148 3 153 9 5 6 13 38 20 72 6 35 13 74 16 88 5 29 17 27 -188 26
-136 -1 -128 -10 -103 108 8 39 17 85 20 103 3 18 8 41 11 51 3 9 2 17 -3 17
-4 0 -60 -41 -123 -91 -108 -85 -116 -93 -125 -137 l-10 -47 -123 -1 -122 -2
5 29 c3 16 12 60 19 97 13 61 23 115 31 167 7 45 26 119 36 136 20 38 68 53
166 52 51 -1 92 2 91 5 -2 6 4 40 18 115 2 10 6 27 9 36 4 14 -2 22 -23 30
-44 18 -131 28 -184 20z"/>
<path d="M2304 2398 c-32 -4 -83 -12 -111 -18 -44 -9 -53 -15 -54 -33 0 -12
-2 -29 -4 -37 -1 -8 -6 -33 -9 -55 -3 -22 -9 -52 -12 -67 l-5 -26 88 31 c101
36 207 43 258 17 39 -20 76 -87 76 -142 1 -43 -8 -109 -16 -116 -2 -3 -23 3
-46 12 -171 68 -353 49 -465 -48 -87 -77 -124 -185 -99 -292 14 -63 33 -93 91
-149 96 -94 284 -99 399 -11 42 32 47 32 35 0 -6 -14 -10 -30 -10 -35 0 -5 45
-9 100 -9 55 0 100 3 100 8 0 4 11 59 24 122 14 63 27 127 30 143 3 15 9 39
12 55 3 15 9 46 15 70 5 23 12 59 15 80 3 20 8 40 10 44 10 15 18 98 18 168
-2 216 -162 321 -440 288z m123 -597 c61 -29 62 -30 53 -60 -10 -34 -10 -37
-10 -51 0 -14 -64 -70 -113 -98 -155 -89 -336 29 -248 162 58 88 188 107 318
47z"/>
<path d="M1854 2355 c-50 -13 -109 -32 -132 -44 -23 -12 -43 -21 -46 -21 -2 0
0 15 5 32 5 18 9 36 9 40 0 5 -42 8 -94 8 -81 0 -95 -2 -100 -17 -3 -10 -23
-119 -46 -243 -22 -124 -42 -236 -45 -250 -3 -14 -10 -52 -15 -85 -6 -33 -15
-80 -20 -105 -5 -25 -12 -61 -15 -80 -6 -43 -13 -83 -25 -132 -9 -43 -19 -40
117 -40 69 0 83 5 83 31 0 10 11 73 25 142 13 68 26 138 29 154 10 59 16 90
31 165 2 14 7 39 10 55 11 64 15 77 35 111 35 56 95 85 197 92 l87 7 12 75
c16 99 16 117 1 123 -7 3 -54 -6 -103 -18z"/>
</g>
</svg>
